<svg xmlns="http://www.w3.org/2000/svg" xmlns:xlink="http://www.w3.org/1999/xlink" focusable="false" viewBox="0 0 128 128" aria-hidden="true" role="presentation" width="36" height="36" style="fill: #FFF"><g><path d="M49.617,33.842l0.121-0.01c0.071-0.004,0.143-0.005,0.217-0.005c4.117,0,13.242,5.675,16.003,16.522   c1.787,7.021,2.017,16.478-0.803,21.784c2.441,3.748,9.384,8.017,16.434,10.001c1.925,0.542,3.895,0.816,5.855,0.816   c7.014,0,11.809-3.431,12.617-4.858c0.22-0.53,1.787-4.417,2.526-9.117c1.015-6.469,1.243-12.794,0.677-18.797   C100.66,22.569,81.624,6.264,64.167,4.427c-0.993-0.104-2.005-0.157-3.009-0.157c-15.242,0-31.844,12.18-35.836,39.277   c4.35-2.76,9.128-5.148,14.25-7.123C44.743,34.432,49.42,33.865,49.617,33.842z"></path><path d="M36.846,103.018l-0.069-0.1c-2.174-3.401-1.958-14.356,6.195-22.306c5.084-4.957,13.254-9.976,19.268-10.196   c2.025-3.988,2.25-12.135,0.444-19.233c-2.487-9.771-10.518-13.977-12.728-13.977h-0.012c-0.578,0.076-4.723,0.663-9.155,2.371   c-6.11,2.354-11.702,5.32-16.618,8.813C1.563,64.45-3.041,89.087,4.097,105.124c5.107,11.477,17.216,18.606,31.602,18.606   c6.851,0,14.136-1.521,21.701-4.525c-4.565-2.388-9.024-5.331-13.295-8.78C39.793,106.943,36.964,103.177,36.846,103.018z"></path><path d="M126.568,83.611c-1.237-7.708-5.703-18.969-19.686-30.018c0.215,5.148-0.105,10.482-0.957,15.906   c-0.86,5.475-2.708,9.808-2.785,9.989l-0.053,0.11c-1.463,2.821-7.714,6.729-15.644,6.73c-2.27,0-4.548-0.316-6.771-0.942   C73.7,83.425,65.396,78.896,62.208,73.8c-4.503,0.243-11.646,4.13-16.878,9.232c-7.253,7.072-6.86,16.116-5.736,18.018   c0.348,0.454,2.931,3.756,6.633,6.746c5.095,4.115,10.458,7.475,15.94,9.985c7.958,3.645,16.07,5.493,24.111,5.493   c14.455,0.001,27.563-6.159,35.061-16.477C126.066,100.293,127.924,92.059,126.568,83.611z"></path></g></svg>
